<svg width="62" height="64" viewBox="0 0 62 64" fill="none" xmlns="http://www.w3.org/2000/svg">
<path d="M21.6273 17.8238L20.5449 18.216C18.8744 18.8218 17.6282 20.283 17.2923 22.0307L16.925 23.9552C16.7418 24.9084 16.9913 25.8847 17.6099 26.6333C18.2288 27.3827 19.1413 27.8124 20.113 27.8124H29.4951C30.4594 27.8124 31.3673 27.3883 31.986 26.6488C32.6043 25.9099 32.8615 24.9425 32.6918 23.9947L32.3493 22.0803C32.0319 20.3052 30.7815 18.8202 29.0858 18.2048L27.9383 17.7889V16.0977C27.9383 16.0502 27.9336 16.0039 27.9268 15.9583C28.7639 15.106 29.2434 13.9439 29.2434 12.7549V10.235C29.2434 7.77529 27.2421 5.77417 24.7823 5.77417C22.3224 5.77417 20.3208 7.77529 20.3208 10.235V12.8334C20.3208 14.0557 20.8248 15.1715 21.6352 15.9819C21.6304 16.0199 21.6273 16.0583 21.6273 16.0975V17.8238ZM30.5033 22.4103L30.8458 24.3249C30.9175 24.725 30.8089 25.1334 30.5478 25.4454C30.2863 25.7579 29.9025 25.9373 29.4949 25.9373H20.1128C19.7022 25.9373 19.3167 25.7558 19.0552 25.4392C18.7942 25.1232 18.6888 24.7113 18.7663 24.3079L19.1335 22.3834C19.3452 21.2819 20.1309 20.3605 21.1835 19.9789L21.8925 19.722C21.9103 19.7403 21.9281 19.7587 21.9474 19.7755C22.7553 20.4819 23.7686 20.8352 24.7826 20.835C25.7954 20.835 26.8085 20.4825 27.6165 19.7775C27.6456 19.7522 27.6724 19.7248 27.6979 19.6963L28.4458 19.9674C29.515 20.3552 30.3033 21.2912 30.5033 22.4103ZM22.1958 10.235C22.1958 8.80929 23.3559 7.64917 24.7819 7.64917C25.9854 7.64917 26.9966 8.47667 27.2838 9.59167C27.1633 9.65054 27.0396 9.70617 26.913 9.75679C25.7603 10.2183 24.8291 10.157 24.563 9.97054C24.139 9.67329 23.5545 9.77579 23.2572 10.1998C22.9599 10.6238 23.0625 11.2083 23.4864 11.5057C23.9443 11.8268 24.5658 11.9873 25.275 11.9873C25.9194 11.9873 26.6363 11.8534 27.3681 11.5885V12.7547C27.3681 13.4713 27.0718 14.173 26.5549 14.6799C26.3156 14.9147 26.0415 15.0965 25.7471 15.222C25.7265 15.2299 25.7063 15.2384 25.6864 15.2477C25.384 15.3673 25.061 15.4274 24.7309 15.4188C23.3329 15.3919 22.1958 14.232 22.1958 12.8333V10.235ZM24.6949 17.2937C24.7235 17.2942 24.7519 17.2944 24.7805 17.2944C25.2204 17.2944 25.6514 17.2283 26.0631 17.1014V18.6013C25.2818 19.083 24.2829 19.0828 23.5025 18.6005V17.1042C23.8818 17.219 24.2814 17.2857 24.6949 17.2937Z" fill="#AF7F3E"/>
<path d="M10.0327 43.8629H39.229C39.7468 43.8629 40.1665 43.4433 40.1665 42.9254C40.1665 42.4075 39.7468 41.9879 39.229 41.9879H10.0327C9.51484 41.9879 9.09521 42.4075 9.09521 42.9254C9.09521 43.4433 9.51484 43.8629 10.0327 43.8629Z" fill="#AF7F3E"/>
<path d="M10.0327 48.9182H39.229C39.7468 48.9182 40.1665 48.4986 40.1665 47.9807C40.1665 47.4628 39.7468 47.0432 39.229 47.0432H10.0327C9.51484 47.0432 9.09521 47.4628 9.09521 47.9807C9.09521 48.4986 9.51484 48.9182 10.0327 48.9182Z" fill="#AF7F3E"/>
<path d="M10.0327 53.973H39.229C39.7468 53.973 40.1665 53.5534 40.1665 53.0355C40.1665 52.5176 39.7468 52.098 39.229 52.098H10.0327C9.51484 52.098 9.09521 52.5176 9.09521 53.0355C9.09521 53.5534 9.51484 53.973 10.0327 53.973Z" fill="#AF7F3E"/>
<path d="M10.0327 59.0282H39.229C39.7468 59.0282 40.1665 58.6086 40.1665 58.0907C40.1665 57.5728 39.7468 57.1532 39.229 57.1532H10.0327C9.51484 57.1532 9.09521 57.5728 9.09521 58.0907C9.09521 58.6086 9.51484 59.0282 10.0327 59.0282Z" fill="#AF7F3E"/>
<path d="M9.09521 32.8154C9.09521 33.3333 9.51484 33.7529 10.0327 33.7529H39.229C39.7468 33.7529 40.1665 33.3333 40.1665 32.8154C40.1665 32.2976 39.7468 31.8779 39.229 31.8779H10.0327C9.51484 31.8779 9.09521 32.2977 9.09521 32.8154Z" fill="#AF7F3E"/>
<path d="M10.0327 38.808H39.229C39.7468 38.808 40.1665 38.3884 40.1665 37.8705C40.1665 37.3526 39.7468 36.933 39.229 36.933H10.0327C9.51484 36.933 9.09521 37.3526 9.09521 37.8705C9.09521 38.3884 9.51484 38.808 10.0327 38.808Z" fill="#AF7F3E"/>
<path d="M6.57088 43.8665C7.09063 43.8665 7.51201 43.4452 7.51201 42.9255C7.51201 42.4059 7.09063 41.9845 6.57088 41.9845C6.05113 41.9845 5.62988 42.4057 5.62988 42.9255C5.62988 43.4452 6.05126 43.8665 6.57088 43.8665Z" fill="#AF7F3E"/>
<path d="M6.57088 33.7565C7.09063 33.7565 7.51201 33.3353 7.51201 32.8155C7.51201 32.2958 7.09063 31.8745 6.57088 31.8745C6.05113 31.8745 5.62988 32.2958 5.62988 32.8155C5.62988 33.3353 6.05126 33.7565 6.57088 33.7565Z" fill="#AF7F3E"/>
<path d="M6.57088 38.8114C7.09063 38.8114 7.51201 38.3902 7.51201 37.8704C7.51201 37.3507 7.09063 36.9294 6.57088 36.9294C6.05113 36.9294 5.62988 37.3507 5.62988 37.8704C5.62988 38.3902 6.05126 38.8114 6.57088 38.8114Z" fill="#AF7F3E"/>
<path d="M6.57088 48.9214C7.09063 48.9214 7.51201 48.5002 7.51201 47.9804C7.51201 47.4607 7.09063 47.0394 6.57088 47.0394C6.05113 47.0394 5.62988 47.4607 5.62988 47.9804C5.62988 48.5002 6.05126 48.9214 6.57088 48.9214Z" fill="#AF7F3E"/>
<path d="M6.57088 53.9766C7.09063 53.9766 7.51201 53.5554 7.51201 53.0356C7.51201 52.5159 7.09063 52.0946 6.57088 52.0946C6.05113 52.0946 5.62988 52.5159 5.62988 53.0356C5.62988 53.5552 6.05126 53.9766 6.57088 53.9766Z" fill="#AF7F3E"/>
<path d="M6.57088 59.0317C7.09063 59.0317 7.51201 58.6104 7.51201 58.0907C7.51201 57.571 7.09063 57.1497 6.57088 57.1497C6.05113 57.1497 5.62988 57.5709 5.62988 58.0907C5.62988 58.6103 6.05126 59.0317 6.57088 59.0317Z" fill="#AF7F3E"/>
<path d="M59.7035 14.7651C59.3252 14.2864 58.9677 13.834 58.7949 13.4172C58.6084 12.9674 58.5349 12.373 58.4571 11.7435C58.3207 10.6407 58.1662 9.39087 57.294 8.51875C56.4217 7.64663 55.1717 7.49213 54.069 7.35575C53.4394 7.278 52.8447 7.2045 52.3949 7.018C51.978 6.84513 51.5257 6.48787 51.0469 6.1095C50.388 5.58887 49.6634 5.01725 48.8066 4.75787V4.47425C48.8068 2.00725 46.7994 0 44.332 0H5.27651C2.80913 0 0.801758 2.00725 0.801758 4.47437V8.093C0.801758 8.61088 1.22138 9.0305 1.73926 9.0305C2.25713 9.0305 2.67676 8.61088 2.67676 8.093V4.47437C2.67676 3.041 3.84301 1.875 5.27651 1.875H44.332C45.7655 1.875 46.9317 3.041 46.9317 4.47437V4.75812C46.0752 5.01762 45.3509 5.589 44.692 6.10962C44.2131 6.48787 43.7609 6.84525 43.3441 7.01813C42.8942 7.2045 42.2996 7.278 41.67 7.35588C40.5672 7.49213 39.3174 7.64663 38.445 8.51875C37.5726 9.391 37.4181 10.6409 37.2818 11.7436C37.204 12.373 37.1305 12.9675 36.944 13.4174C36.7711 13.8341 36.4138 14.2865 36.0354 14.7653C35.3349 15.6516 34.5411 16.6562 34.5411 17.9424C34.5411 19.2285 35.335 20.2331 36.0354 21.1195C36.4136 21.5982 36.7711 22.0506 36.944 22.4674C37.1305 22.9172 37.204 23.5116 37.2818 24.1413C37.4181 25.2439 37.5726 26.4937 38.4449 27.3659C39.3171 28.2381 40.5671 28.3925 41.6699 28.5289C41.9986 28.5695 42.3172 28.6094 42.6114 28.6644V42.8353C42.6114 43.3906 42.9214 43.8866 43.4205 44.1296C43.9195 44.373 44.5011 44.3112 44.9388 43.9686L46.9316 42.4082V59.5257C46.9316 60.9591 45.7654 62.1251 44.3319 62.1251H5.27651C3.84301 62.1251 2.67676 60.9591 2.67676 59.5257V12.2214C2.67676 11.7035 2.25713 11.2839 1.73926 11.2839C1.22138 11.2839 0.801758 11.7035 0.801758 12.2214V59.5256C0.801758 61.9927 2.80913 64 5.27651 64H44.332C46.7994 64 48.8067 61.9927 48.8067 59.5256V42.4081L50.7996 43.9684C51.0597 44.1721 51.371 44.2766 51.6858 44.2766C51.9002 44.2766 52.1162 44.228 52.3187 44.1294C52.818 43.8864 53.1283 43.3904 53.1283 42.8351V32.373C53.1283 31.8551 52.7086 31.4355 52.1908 31.4355C51.6729 31.4355 51.2533 31.8551 51.2533 32.373V41.9424L48.7611 39.9912C48.5092 39.7919 48.1925 39.682 47.8691 39.682C47.5457 39.682 47.229 39.7919 46.9811 39.988L44.4863 41.9414V29.6133C44.5543 29.6665 44.6226 29.7204 44.6919 29.775C45.5784 30.4755 46.5831 31.2691 47.8694 31.2691C49.1555 31.2691 50.1603 30.4754 51.0468 29.7751C51.5256 29.3969 51.978 29.0394 52.3948 28.8665C52.8446 28.6801 53.4393 28.6066 54.0689 28.5287C55.1716 28.3925 56.4215 28.238 57.294 27.3659C58.1661 26.4936 58.3206 25.2437 58.457 24.1411C58.5349 23.5116 58.6084 22.9171 58.7949 22.4673C58.9677 22.0505 59.3251 21.5981 59.7035 21.1194C60.404 20.233 61.1978 19.2284 61.1978 17.9422C61.1978 16.6561 60.4039 15.6515 59.7035 14.7651ZM58.2324 19.9569C57.7914 20.515 57.3354 21.092 57.063 21.749C56.7789 22.434 56.686 23.1849 56.5962 23.911C56.4874 24.7917 56.3846 25.6236 55.9684 26.0399C55.552 26.4561 54.72 26.5589 53.8391 26.6677C53.1129 26.7575 52.3621 26.8503 51.6769 27.1344C51.0199 27.4067 50.4429 27.8626 49.8848 28.3036C49.1749 28.8643 48.5045 29.394 47.8696 29.394C47.2348 29.394 46.5644 28.8644 45.8545 28.3036C45.2964 27.8628 44.7194 27.4067 44.0624 27.1344C44.0171 27.1156 43.8601 27.0559 43.8262 27.0454C43.2066 26.8299 42.5438 26.7472 41.9 26.6677C41.0191 26.5589 40.1871 26.456 39.7708 26.0397C39.3546 25.6236 39.2518 24.7917 39.1429 23.9111C39.0531 23.1849 38.9604 22.4342 38.6762 21.749C38.4037 21.092 37.9479 20.515 37.5069 19.9569C36.9463 19.2471 36.4165 18.5769 36.4165 17.9422C36.4165 17.3076 36.9461 16.6374 37.5069 15.9276C37.9479 15.3695 38.4039 14.7925 38.6762 14.1355C38.9604 13.4505 39.0533 12.6996 39.1429 11.9735C39.2518 11.0928 39.3546 10.2609 39.7709 9.84463C40.1872 9.42838 41.0192 9.32563 41.9001 9.21675C42.6264 9.127 43.3771 9.03425 44.0624 8.75012C44.7194 8.47775 45.2964 8.02188 45.8545 7.58087C46.5629 7.02125 47.2321 6.49275 47.8659 6.49075C47.867 6.49075 47.8683 6.49087 47.8694 6.49087C47.8706 6.49087 47.8719 6.49075 47.8731 6.49075C48.507 6.49262 49.1763 7.02125 49.8848 7.58087C50.4429 8.02175 51.0199 8.47775 51.6769 8.75012C52.362 9.03425 53.113 9.12712 53.8392 9.21675C54.7201 9.32563 55.5521 9.4285 55.9684 9.84475C56.3846 10.261 56.4875 11.0928 56.5964 11.9735C56.6861 12.6996 56.7789 13.4504 57.063 14.1355C57.3355 14.7925 57.7914 15.3695 58.2324 15.9276C58.793 16.6374 59.3228 17.3076 59.3228 17.9422C59.3228 18.5769 58.7931 19.2472 58.2324 19.9569Z" fill="#AF7F3E"/>
<path d="M53.8886 14.963L50.6984 14.0604L48.8537 11.3054C48.6334 10.9764 48.2656 10.7802 47.8697 10.7802C47.4739 10.7802 47.106 10.9765 46.8857 11.3054L45.0411 14.0604L41.8506 14.9632C41.4696 15.071 41.1691 15.3604 41.0469 15.7369C40.9246 16.1134 40.9979 16.524 41.2426 16.8348L43.293 19.4402L43.1657 22.7523C43.1504 23.148 43.3324 23.5233 43.6527 23.7562C43.8584 23.9055 44.102 23.9828 44.3484 23.9828C44.4861 23.9828 44.6246 23.9587 44.7576 23.9097L47.8695 22.7649L50.9811 23.9095C51.3527 24.0465 51.7656 23.989 52.086 23.7564C52.4064 23.5238 52.5886 23.1487 52.5734 22.7528L52.4461 19.44L54.4966 16.8347C54.7414 16.5235 54.8145 16.1132 54.6921 15.7367C54.5702 15.3602 54.2697 15.0709 53.8886 14.963ZM50.8152 18.4809C50.642 18.7014 50.5524 18.9772 50.563 19.2583L50.6602 21.7938L48.2786 20.9177C48.0147 20.8205 47.7241 20.8207 47.4607 20.9175L45.0789 21.7938L45.1762 19.2574C45.1867 18.9773 45.097 18.7015 44.9234 18.4803L43.3541 16.4863L45.7965 15.7954C46.0666 15.7188 46.3015 15.548 46.4576 15.3148L47.8695 13.206L49.2812 15.3145C49.4375 15.5479 49.6724 15.7187 49.943 15.7955L52.3849 16.4863L50.8152 18.4809Z" fill="#AF7F3E"/>
</svg>
