<svg width="70" height="70" viewBox="0 0 70 70" fill="none" xmlns="http://www.w3.org/2000/svg">
<g clip-path="url(#clip0)">
<path d="M56.9668 44.1295C56.3314 44.1295 55.8159 43.6146 55.8159 42.9786V42.5408C55.8159 41.1957 53.8966 39.8762 51.9412 39.8762H47.2362C46.6008 39.8762 46.0859 39.362 46.0859 38.726C46.0859 38.0899 46.6008 37.5751 47.2362 37.5751H51.9412C54.8625 37.5751 58.117 39.6148 58.117 42.5408V42.9786C58.117 43.6146 57.6021 44.1295 56.9668 44.1295Z" fill="#AF7F3E"/>
<path d="M52.3652 30.0956C52.3336 30.0956 52.302 30.0949 52.2704 30.0923C51.6364 30.0396 51.165 29.4845 51.2176 28.8512L51.7931 21.8279C51.7885 17.8637 48.7229 14.5618 44.9549 14.5618H39.0621C35.2934 14.5618 32.2279 17.8637 32.2279 21.9221L32.7987 28.8512C32.8514 29.4845 32.3799 30.0396 31.7459 30.0923C31.1165 30.1443 30.5581 29.6735 30.5055 29.0395L29.9307 22.0162C29.9267 16.5949 34.0246 12.2606 39.0621 12.2606H44.9542C49.9923 12.2606 54.0903 16.5949 54.0903 21.9221L53.5109 29.0395C53.4615 29.6406 52.9585 30.0956 52.3652 30.0956Z" fill="#AF7F3E"/>
<path d="M42.0084 41.0271C40.6442 41.0271 39.2695 40.8078 38.0323 40.3923C37.4299 40.1902 37.1053 39.5371 37.3081 38.9346C37.5109 38.3328 38.1627 38.0102 38.7645 38.2097C39.7685 38.5468 40.8898 38.7259 42.0078 38.7259C44.6157 38.7259 47.0288 37.7818 48.3048 36.2615C50.0443 34.1875 51.213 31.2273 51.213 28.8966V24.2594C51.213 23.655 51.0892 23.2514 50.8456 23.0631C49.9785 22.3875 47.223 23.0874 44.7922 23.7044C42.5701 24.2686 40.2735 24.8526 38.1923 24.8526C35.6028 24.8526 33.8593 23.921 32.8158 23.2803C32.8079 23.5378 32.8033 23.8584 32.8033 24.2594V28.8966C32.8033 30.5755 33.4287 32.6646 34.4769 34.4845C34.7943 35.0355 34.6047 35.7387 34.0542 36.0554C33.5031 36.3734 32.8 36.1845 32.4826 35.6327C31.2237 33.4462 30.5015 30.9909 30.5015 28.8966V24.2594C30.5015 22.3026 30.5456 21.1715 31.4562 20.6691C32.268 20.2141 33.0363 20.7027 33.7132 21.1274C34.6126 21.6949 35.9722 22.5515 38.1923 22.5515C39.9852 22.5515 42.1408 22.003 44.2253 21.4737C47.5944 20.6184 50.5012 19.8784 52.2585 21.2459C53.0921 21.8937 53.5141 22.9077 53.5141 24.2594V28.8966C53.5141 31.7725 52.1617 35.2429 50.0674 37.7403C48.341 39.7985 45.3275 41.0271 42.0084 41.0271Z" fill="#AF7F3E"/>
<path d="M52.5087 55.2796C51.9826 55.2796 51.5073 54.9155 51.3874 54.3809C51.2485 53.7607 51.6389 53.145 52.2592 53.0068L65.9145 49.9491C66.4215 49.8596 66.8179 49.6074 67.0826 49.2302C67.3472 48.8529 67.4493 48.3953 67.3696 47.941C67.2643 47.3379 66.8409 46.8309 66.2668 46.6176C65.6703 46.397 65.3661 45.7353 65.5873 45.1388C65.8085 44.543 66.4729 44.2361 67.0654 44.46C68.4046 44.9558 69.3903 46.1376 69.6365 47.5433C69.8228 48.6033 69.5845 49.6713 68.9663 50.5516C68.3487 51.4325 67.4243 52.0192 66.3642 52.2055L52.7615 55.2519C52.6773 55.2704 52.5923 55.2796 52.5087 55.2796Z" fill="#AF7F3E"/>
<path d="M36.941 61.7386H28.2C28.1164 61.7386 28.0328 61.73 27.9505 61.7116L17.595 59.4105C16.9748 59.2722 16.5831 58.6572 16.7213 58.0377C16.8589 57.4175 17.4726 57.0303 18.0934 57.1633L28.3264 59.4375H36.941C41.4314 59.4375 45.8361 57.8922 49.3434 55.0867C49.3744 55.0617 49.4066 55.0393 49.4396 55.0182L66.4706 44.0669C66.5259 44.0307 66.5838 44.0004 66.6437 43.9748C67.0684 43.795 67.397 43.4599 67.5701 43.0332C67.7433 42.6053 67.7387 42.1352 67.5589 41.7118C67.1869 40.8348 66.1717 40.4246 65.296 40.7966L48.1998 47.8449C48.0609 47.9022 47.9114 47.9311 47.7613 47.9311H25.8989C25.4841 47.9311 25.1015 47.7086 24.8974 47.3478C24.6933 46.9863 24.6992 46.5432 24.9126 46.1883L28.3646 40.4352C28.572 40.0895 28.9466 39.8768 29.3509 39.8768H33.9538C36.0943 39.8768 37.8983 38.4086 38.4106 36.4248H26.2755L10.579 47.9364C10.0655 48.3123 9.34717 48.1991 8.97056 47.6888C8.59526 47.1766 8.70588 46.4563 9.21812 46.0797L25.2187 34.3462C25.4156 34.2013 25.6539 34.1237 25.8989 34.1237H39.7063C40.3417 34.1237 40.8572 34.6385 40.8572 35.2746C40.8572 39.0815 37.7601 42.1786 33.9532 42.1786H30.0027L27.9314 45.6306H47.5335L64.4084 38.6739C66.4423 37.8094 68.8106 38.7694 69.6777 40.8131C70.0977 41.8033 70.1076 42.8976 69.704 43.8957C69.3142 44.861 68.5834 45.6227 67.6406 46.052L50.7346 56.9223C46.8277 60.028 41.9324 61.7386 36.941 61.7386Z" fill="#AF7F3E"/>
<path d="M12.4498 68.2502C12.3885 68.2502 12.3266 68.2456 12.2654 68.2358C11.9638 68.1864 11.6946 68.0198 11.5161 67.7729L0.217861 52.0995C0.038774 51.8526 -0.0343092 51.5432 0.0150713 51.2423C0.0637934 50.9414 0.230371 50.6721 0.477932 50.493L7.94427 45.1105C8.46112 44.7431 9.17944 44.8564 9.55078 45.3712L20.8491 61.0433C21.2211 61.5589 21.1045 62.2778 20.589 62.6498L13.1226 68.0336C12.9258 68.1752 12.6894 68.2502 12.4498 68.2502ZM2.75734 51.6873L12.7105 65.4928L18.3102 61.4555L8.35709 47.65L2.75734 51.6873Z" fill="#AF7F3E"/>
<path d="M15.5432 60.5884C15.5432 61.8591 14.5128 62.8895 13.2421 62.8895C11.9713 62.8895 10.9409 61.8591 10.9409 60.5884C10.9409 59.317 11.9713 58.2866 13.2421 58.2866C14.5128 58.2866 15.5432 59.317 15.5432 60.5884Z" fill="#AF7F3E"/>
<path d="M42.0083 8.80855C41.3723 8.80855 40.8574 8.29433 40.8574 7.65831V3.05539C40.8574 2.41937 41.3723 1.90515 42.0083 1.90515C42.6437 1.90515 43.1586 2.41937 43.1586 3.05539V7.65831C43.1586 8.29433 42.6437 8.80855 42.0083 8.80855Z" fill="#AF7F3E"/>
<path d="M46.6109 8.80863C46.3165 8.80863 46.0222 8.6967 45.7977 8.47153C45.348 8.02249 45.348 7.29429 45.7977 6.8446L49.8245 2.81712C50.2742 2.36809 51.0024 2.36809 51.4515 2.81712C51.9011 3.26681 51.9011 3.99501 51.4515 4.44471L47.4246 8.47153C47.1995 8.6967 46.9058 8.80863 46.6109 8.80863Z" fill="#AF7F3E"/>
<path d="M37.4057 8.80862C37.1114 8.80862 36.817 8.69669 36.5925 8.47151L33.1405 5.01949C32.6908 4.57045 32.6908 3.84225 33.1405 3.39256C33.5895 2.94353 34.3177 2.94353 34.7674 3.39256L38.2195 6.84459C38.6685 7.29428 38.6685 8.02248 38.2195 8.47151C37.9943 8.69669 37.7 8.80862 37.4057 8.80862Z" fill="#AF7F3E"/>
</g>
<defs>
<clipPath id="clip0">
<rect width="70" height="70" fill="white"/>
</clipPath>
</defs>
</svg>
