<svg width="73" height="73" viewBox="0 0 73 73" fill="none" xmlns="http://www.w3.org/2000/svg">
<path d="M70.5133 23.518H69.1671V23.4976C69.1671 18.3444 64.9747 14.152 59.8215 14.152H57.6235V8.19338C57.6235 6.8222 56.508 5.70667 55.1368 5.70667H54.3561V4.65002C54.3561 4.05947 53.8773 3.58069 53.2867 3.58069C52.6962 3.58069 52.2174 4.05947 52.2174 4.65002V5.70667H51.4366C50.0655 5.70667 48.9499 6.8222 48.9499 8.19338V14.1521H46.3775V8.19338C46.3775 6.8222 45.262 5.70667 43.8908 5.70667H43.1101V4.65002C43.1101 4.05947 42.6313 3.58069 42.0407 3.58069C41.4502 3.58069 40.9714 4.05947 40.9714 4.65002V5.70667H40.1906C38.8195 5.70667 37.7039 6.8222 37.7039 8.19338V14.1521H31.119C30.5284 14.1521 30.0496 14.6309 30.0496 15.2215C30.0496 15.812 30.5284 16.2908 31.119 16.2908H59.8215C63.7954 16.2908 67.0284 19.5238 67.0284 23.4977V56.4998H62.9142C62.3236 56.4998 61.8448 56.9786 61.8448 57.5692C61.8448 58.1597 62.3236 58.6385 62.9142 58.6385H67.956C68.1479 58.6385 68.3039 58.7946 68.3039 58.9865V63.8794H2.13867V58.9865C2.13867 58.7946 2.2948 58.6385 2.48671 58.6385H4.65218V59.6163C4.65218 60.992 5.77156 62.1114 7.1473 62.1114H17.1182C18.4939 62.1114 19.6133 60.992 19.6133 59.6163V58.6385H57.9922C58.5828 58.6385 59.0616 58.1597 59.0616 57.5692C59.0616 56.9786 58.5828 56.4998 57.9922 56.4998H54.4288V55.0444C54.4288 53.6732 53.3132 52.5577 51.9421 52.5577H41.9143V37.0719C41.9143 36.4813 41.4355 36.0025 40.8449 36.0025H31.1195C30.529 36.0025 30.0502 36.4813 30.0502 37.0719C30.0502 37.6624 30.529 38.1412 31.1195 38.1412H39.7756V52.5575H37.0127C35.6415 52.5575 34.526 53.6731 34.526 55.0443V56.4997H17.2273V55.769C17.2273 55.1784 16.7485 54.6996 16.158 54.6996C15.5674 54.6996 15.0886 55.1784 15.0886 55.769V56.4997H2.48671C1.11553 56.4997 0 57.6152 0 58.9864V66.9327C0 68.3039 1.11553 69.4193 2.48671 69.4193H67.956C69.3272 69.4193 70.4426 68.3037 70.4426 66.9327V58.9864C70.4426 58.0549 69.927 57.2425 69.1671 56.8165V34.9165H70.5133C71.8845 34.9165 73 33.801 73 32.4298V26.0045C73 24.6335 71.8845 23.518 70.5133 23.518ZM51.0887 8.19338C51.0887 8.00146 51.2449 7.84534 51.4368 7.84534H55.1368C55.3287 7.84534 55.4848 8.00146 55.4848 8.19338V14.1521H51.0887V8.19338ZM39.8429 8.19338C39.8429 8.00146 39.999 7.84534 40.1909 7.84534H43.891C44.0829 7.84534 44.239 8.00146 44.239 8.19338V14.1521H39.8429V8.19338ZM17.4745 59.6162C17.4745 59.8126 17.3145 59.9726 17.1181 59.9726H7.14716C6.95068 59.9726 6.79071 59.8126 6.79071 59.6162V58.6384H17.4745V59.6162ZM36.6644 55.0443C36.6644 54.8523 36.8205 54.6962 37.0124 54.6962H51.9418C52.1337 54.6962 52.2898 54.8523 52.2898 55.0443V56.4997H36.6644V55.0443ZM67.956 67.2806H2.48671C2.2948 67.2806 2.13867 67.1245 2.13867 66.9327V66.0179H68.3039V66.9327C68.3039 67.1246 68.1479 67.2806 67.956 67.2806ZM70.8613 32.4299C70.8613 32.6219 70.7052 32.778 70.5133 32.778H69.1671V25.6566H70.5133C70.7052 25.6566 70.8613 25.8128 70.8613 26.0047V32.4299Z" fill="#AF7F3E"/>
<path d="M5.0471 41.8133V42.6615C5.0471 44.0327 6.16263 45.1482 7.5338 45.1482H8.20406V47.9879C8.20406 49.3172 9.25315 50.4029 10.5663 50.4684V53.0995C10.5663 53.6901 11.0451 54.1688 11.6356 54.1688C12.2262 54.1688 12.705 53.6901 12.705 53.0995V50.4684C14.0181 50.4029 15.0672 49.3172 15.0672 47.9879V45.1482H15.7375C17.1086 45.1482 18.2242 44.0327 18.2242 42.6615V41.8133C19.4311 41.6435 20.3637 40.6068 20.3637 39.3537C20.3637 38.6851 20.9076 38.1412 21.5762 38.1412H26.1973C26.7878 38.1412 27.2666 37.6624 27.2666 37.0719C27.2666 36.4813 26.7878 36.0025 26.1973 36.0025H21.5762C19.7284 36.0025 18.225 37.5059 18.225 39.3537C18.225 39.5456 18.0689 39.7017 17.877 39.7017H10.3427V13.5195H12.9285V23.511C12.4249 23.5977 12.0414 24.0354 12.0414 24.5636C12.0414 25.0919 12.4249 25.5296 12.9285 25.6163V30.2263C12.9285 30.8168 13.4073 31.2956 13.9979 31.2956C14.5884 31.2956 15.0672 30.8168 15.0672 30.2263V25.633H16.1581C16.7486 25.633 17.2274 25.1542 17.2274 24.5636C17.2274 23.9731 16.7486 23.4943 16.1581 23.4943H15.0672V13.5195H15.8572C16.697 13.5195 17.4567 13.9502 17.8893 14.672C18.4879 15.6705 19.6045 16.2908 20.8034 16.2908H26.1971C26.7877 16.2908 27.2665 15.812 27.2665 15.2215C27.2665 14.6309 26.7877 14.1521 26.1971 14.1521H20.8034C20.3517 14.1521 19.938 13.93 19.7235 13.5723C18.9131 12.2206 17.4316 11.381 15.8572 11.381H13.188V7.20117C13.188 6.61061 12.7092 6.13184 12.1187 6.13184C11.5281 6.13184 11.0494 6.61061 11.0494 7.20117V11.3808H10.3427V9.51607C10.3427 8.92551 9.86396 8.44673 9.2734 8.44673C8.68284 8.44673 8.20406 8.92551 8.20406 9.51607V11.3808H7.41418C4.92933 11.3808 2.90771 13.4025 2.90771 15.8872V39.3537C2.90771 40.6069 3.84018 41.6436 5.0471 41.8133ZM12.9285 47.9879C12.9285 48.1798 12.7724 48.336 12.5805 48.336H10.6908C10.4989 48.336 10.3427 48.1798 10.3427 47.9879V45.1482H12.9285V47.9879ZM15.7375 43.0095H7.5338C7.34189 43.0095 7.18577 42.8534 7.18577 42.6615V41.8404H16.0854V42.6615C16.0855 42.8534 15.9294 43.0095 15.7375 43.0095ZM5.04639 15.8872C5.04639 14.5816 6.10859 13.5195 7.41418 13.5195H8.20421V39.7019H5.39428C5.20237 39.7019 5.04624 39.5457 5.04624 39.3538V15.8872H5.04639Z" fill="#AF7F3E"/>
<path d="M60.8222 26.524C60.8222 22.3691 57.4419 18.9889 53.2871 18.9889C49.1322 18.9889 45.752 22.3691 45.752 26.524C45.752 30.6789 49.1322 34.0591 53.2871 34.0591C57.4419 34.059 60.8222 30.6787 60.8222 26.524ZM53.2872 31.9203C50.3116 31.9203 47.8908 29.4995 47.8908 26.5239C47.8908 23.5483 50.3116 21.1274 53.2872 21.1274C56.2628 21.1274 58.6836 23.5483 58.6836 26.5239C58.6836 29.4995 56.2627 31.9203 53.2872 31.9203Z" fill="#AF7F3E"/>
<path d="M54.3561 22.7406V22.5938C54.3561 22.0032 53.8774 21.5244 53.2868 21.5244C52.6962 21.5244 52.2175 22.0032 52.2175 22.5938V22.7406C50.5674 23.2077 49.3545 24.7263 49.3545 26.5239C49.3545 28.6922 51.1185 30.4562 53.2868 30.4562C55.455 30.4562 57.219 28.6922 57.219 26.5239C57.219 24.7263 56.006 23.2077 54.3561 22.7406ZM53.2868 28.3174C52.2977 28.3174 51.4932 27.5128 51.4932 26.5238C51.4932 25.5347 52.2977 24.7301 53.2868 24.7301C54.2757 24.7301 55.0803 25.5347 55.0803 26.5238C55.0803 27.5128 54.2757 28.3174 53.2868 28.3174Z" fill="#AF7F3E"/>
<path d="M38.115 20.1111C34.5789 20.1111 31.7021 22.9879 31.7021 26.524C31.7021 30.06 34.5789 32.9368 38.115 32.9368C41.6511 32.9368 44.5279 30.06 44.5279 26.524C44.5279 22.9879 41.651 20.1111 38.115 20.1111ZM38.115 30.798C35.7582 30.798 33.8408 28.8806 33.8408 26.5238C33.8408 24.167 35.7582 22.2496 38.115 22.2496C40.4718 22.2496 42.3892 24.167 42.3892 26.5238C42.3892 28.8806 40.4717 30.798 38.115 30.798Z" fill="#AF7F3E"/>
<path d="M38.115 23.0885C36.2207 23.0885 34.6797 24.6296 34.6797 26.5238C34.6797 28.4179 36.2208 29.9591 38.115 29.9591C40.0091 29.9591 41.5502 28.4179 41.5502 26.5238C41.5502 24.6296 40.0091 23.0885 38.115 23.0885ZM38.115 27.8205C37.3999 27.8205 36.8184 27.2388 36.8184 26.5239C36.8184 25.809 37.4001 25.2273 38.115 25.2273C38.8299 25.2273 39.4116 25.809 39.4116 26.5239C39.4116 27.2388 38.8299 27.8205 38.115 27.8205Z" fill="#AF7F3E"/>
<path d="M52.1716 50.8268H54.4027C55.7739 50.8268 56.8894 49.7113 56.8894 48.3401V47.3182C57.5746 47.0248 58.0563 46.3441 58.0563 45.5527V43.9464C58.0563 43.155 57.5748 42.4741 56.8894 42.1809V41.0873C56.8894 39.7161 55.7739 38.6006 54.4027 38.6006H52.1716C50.8005 38.6006 49.6849 39.7161 49.6849 41.0873V42.1809C48.9997 42.4743 48.5181 43.1551 48.5181 43.9464V45.5527C48.5181 46.3441 48.9996 47.0248 49.6849 47.3182V48.3401C49.6849 49.7113 50.8003 50.8268 52.1716 50.8268ZM55.9174 44.1653V45.3337H50.6567V44.1653H55.9174ZM54.4027 48.6881H52.1716C51.9797 48.6881 51.8236 48.532 51.8236 48.3401V47.4724H54.7507V48.3401C54.7506 48.532 54.5945 48.6881 54.4027 48.6881ZM52.1716 40.7391H54.4027C54.5946 40.7391 54.7507 40.8952 54.7507 41.0871V42.0266H51.8236V41.0871C51.8236 40.8952 51.9797 40.7391 52.1716 40.7391Z" fill="#AF7F3E"/>
<path d="M45.2251 36.9261C44.6345 36.9261 44.1558 37.4049 44.1558 37.9955C44.1558 38.586 44.6345 39.0648 45.2251 39.0648H45.2398C45.8303 39.0648 46.3091 38.586 46.3091 37.9955C46.3091 37.4049 45.8303 36.9261 45.2398 36.9261H45.2251Z" fill="#AF7F3E"/>
<path d="M45.2302 39.873C45.2285 39.873 45.2268 39.873 45.225 39.873C44.6368 39.873 44.1586 40.3484 44.1558 40.9372C44.1529 41.5278 44.6294 42.0089 45.22 42.0117H45.2347C45.2364 42.0117 45.2381 42.0117 45.2399 42.0117C45.8281 42.0117 46.3063 41.5364 46.3091 40.9475C46.312 40.357 45.8355 39.8759 45.2449 39.873H45.2302Z" fill="#AF7F3E"/>
</svg>
