<svg width="96" height="96" viewBox="0 0 96 96" fill="none" xmlns="http://www.w3.org/2000/svg">
<path d="M93.1875 67.875L72.1875 58.875C71.625 58.6875 70.875 58.5 70.3125 58.5C69.1875 58.5 67.6875 59.25 66.9375 60.1875L57.5625 71.625C45.1875 65.625 30.1875 50.8125 24.375 38.4375L35.8125 29.0625C36.75 28.3125 37.5 26.8125 37.5 25.5C37.5 25.125 37.3125 24.375 37.125 23.8125L28.125 2.8125C27.375 1.3125 25.5 0.1875 23.8125 0.1875C23.625 0.1875 23.25 0.1875 22.875 0.1875L3.375 4.6875C1.5 5.0625 0 7.125 0 9C0 57.1875 38.8125 96 87 96C88.875 96 90.9375 94.5 91.3125 92.625L95.8125 73.125C95.8125 72.75 95.8125 72.375 95.8125 72.1875C95.8125 70.5 94.6875 68.625 93.1875 67.875Z" fill="#5F9FFF"/>
</svg>
