<svg width="69" height="101" viewBox="0 0 69 101" fill="none" xmlns="http://www.w3.org/2000/svg">
<path d="M61.4346 100.082C62.2298 100.103 63.168 99.7304 63.7122 99.2142C64.1203 98.8271 64.5354 98.1749 64.6784 97.7808L68.2302 83.816C68.5163 83.0277 68.1572 81.5593 67.512 80.8792C67.2539 80.6071 66.7308 80.328 66.4727 80.056L51.5315 73.2953C50.4852 72.7371 49.0169 73.0962 48.0646 73.9995L47.9286 74.1285L40.9557 82.0348C30.7439 76.9905 22.4855 68.2842 17.8581 57.6844L26.1213 51.1385L26.2574 51.0095C27.2096 50.1062 27.6457 48.6588 27.1436 47.5845L21.1807 32.3074C20.9227 32.0353 20.6716 31.4982 20.4135 31.2261C19.7683 30.5459 18.3209 30.1098 17.5187 30.3539L3.38589 33.1639C1.91749 33.523 0.958241 34.6913 0.916248 36.2817C-0.122633 70.6051 27.1042 99.3087 61.4346 100.082ZM28.8057 24.8163C27.3583 24.3802 26.005 25.4055 25.834 26.8599L25.792 28.4503C25.764 29.5106 26.4022 30.4558 27.4554 30.7489C28.1146 30.8989 29.1539 31.7222 29.7991 32.4023C30.3153 32.9465 31.0825 34.0278 31.1975 34.6939C31.4346 35.7612 32.3449 36.4484 33.4051 36.4764L34.9956 36.5184C36.457 36.4244 37.5523 35.127 37.1931 33.6586C36.1088 29.5185 32.8829 26.1176 28.8057 24.8163ZM29.4426 0.694657C28.1243 0.39459 27.036 1.42689 27.001 2.75225L26.83 4.20665C26.931 5.40298 27.6982 6.48426 28.8876 6.64829C43.3025 8.22255 54.5287 20.0577 55.3401 34.5356C55.4412 35.7319 56.4805 36.5552 57.6698 36.7192L59.1312 36.6251C60.4566 36.6601 61.5448 35.6278 61.3148 34.2955C60.4513 16.7657 46.9024 2.48194 29.4426 0.694657ZM28.9917 12.752C27.6733 12.4519 26.456 13.3482 26.421 14.6735L26.379 16.264C26.215 17.4533 27.1182 18.4055 28.1715 18.6986C36.2317 19.8398 42.5545 26.5056 43.2688 34.6148C43.5059 35.6821 44.4092 36.6343 45.6055 36.5333L47.1959 36.5753C48.5213 36.6103 49.4805 35.4419 49.2505 34.1096C48.3481 23.0776 39.8246 14.3643 28.9917 12.752Z" fill="#6566A7"/>
</svg>
