<svg width="63" height="63" viewBox="0 0 63 63" fill="none" xmlns="http://www.w3.org/2000/svg">
<g clip-path="url(#clip0)">
<path d="M55.004 -0.123047H51.6368C51.629 -0.123047 51.6213 -0.123047 51.6136 -0.123047H41.6249C41.6172 -0.123047 41.6095 -0.123047 41.6018 -0.123047H31.6131C31.6054 -0.123047 31.5977 -0.123047 31.59 -0.123047H21.5998C21.5921 -0.123047 21.5844 -0.123047 21.5772 -0.123047H7.84314C4.50378 -0.123047 1.7876 2.58831 1.7876 5.92067V36.4488C1.7876 39.7812 4.50378 42.492 7.84314 42.492H10.1399C11.7729 42.492 13.2558 41.8427 14.3461 40.7901V47.3548V47.3558V57.3399V57.3413V58.1243C14.3461 60.7448 16.4839 62.877 19.111 62.877H44.1581C44.6691 62.877 45.0828 62.4636 45.0828 61.9541C45.0828 61.4442 44.6691 61.0313 44.1581 61.0313H42.2327C42.1908 60.8876 42.1128 60.7525 41.9996 60.6391C41.6384 60.2786 41.0528 60.2786 40.6916 60.6391L40.6044 60.7261C40.5144 60.8159 40.4469 60.9202 40.4017 61.0313H32.9033L32.9293 61.0053C33.2905 60.6448 33.2905 60.0604 32.9293 59.6999C32.5681 59.3399 31.983 59.3399 31.6218 59.6999L31.5346 59.7869C31.1932 60.1277 31.1749 60.6684 31.4792 61.0313H21.6013C21.5984 61.0279 21.596 61.025 21.5931 61.0221C21.2319 60.6612 20.6468 60.6612 20.2856 61.0212L20.2754 61.0313H19.1114C17.5034 61.0313 16.1959 59.7273 16.1959 58.1243V57.6427C16.3105 57.3966 16.3105 57.1106 16.1959 56.8645V47.6576C16.3105 47.411 16.3105 47.1255 16.1959 46.879V37.3447C16.2946 37.1131 16.2946 36.8502 16.1959 36.6185V32.5752C16.1959 32.0657 15.7817 31.6524 15.2712 31.6524C14.7603 31.6524 14.3466 32.0657 14.3466 32.5752V36.4488C14.3466 38.7636 12.4597 40.6463 10.1403 40.6463H7.84266C5.52331 40.6463 3.63691 38.7631 3.63691 36.4488V5.92067C3.63691 3.60585 5.52379 1.72266 7.84266 1.72266H10.1399C12.4592 1.72266 14.3456 3.60585 14.3456 5.92067V28.9021C14.3456 29.4121 14.7598 29.8249 15.2707 29.8249C15.7812 29.8249 16.1954 29.4121 16.1954 28.9021V26.5978C16.3182 26.6546 16.4506 26.6839 16.5836 26.6839C16.82 26.6839 17.0565 26.594 17.2371 26.4142L17.3243 26.3272C17.6854 25.9672 17.6859 25.3828 17.3247 25.0223C17.0184 24.7161 16.5508 24.6704 16.1954 24.8838V17.4539C16.2296 17.428 16.2638 17.4001 16.2951 17.3688L16.3823 17.2818C16.7435 16.9218 16.7439 16.3374 16.3832 15.9769C16.3259 15.9197 16.2623 15.8721 16.1954 15.8332V5.92067C16.1954 5.91971 16.1954 5.91923 16.1954 5.91827C16.2286 5.96826 16.2676 6.01632 16.3115 6.06054C16.4925 6.24127 16.7295 6.33163 16.9664 6.33163C17.2029 6.33163 17.4389 6.24175 17.6195 6.06246L17.7066 5.97547C18.0683 5.61546 18.0693 5.03099 17.7086 4.6705C17.3478 4.30953 16.7627 4.30857 16.401 4.66857L16.3139 4.75557C16.2339 4.83488 16.1728 4.92524 16.1285 5.02185C15.9373 3.74957 15.3468 2.60706 14.4901 1.72266H21.1129C21.2362 1.77985 21.3687 1.80917 21.5016 1.80917C21.6345 1.80917 21.7674 1.77985 21.8902 1.72266H31.1262C31.249 1.77985 31.3819 1.80917 31.5149 1.80917C31.6478 1.80917 31.7802 1.77985 31.9035 1.72266H41.138C41.2608 1.77985 41.3938 1.80917 41.5267 1.80917C41.6596 1.80917 41.792 1.77985 41.9153 1.72266H51.1499C51.2727 1.77985 51.4056 1.80917 51.5385 1.80917C51.6714 1.80917 51.8039 1.77985 51.9267 1.72266H55.0045C56.3934 1.72266 57.6331 2.37154 58.4364 3.37995C58.2013 3.38139 57.9663 3.47127 57.7872 3.65007L57.7 3.73707C57.3388 4.09756 57.3388 4.68203 57.7 5.04204C57.8806 5.22228 58.1171 5.31265 58.3535 5.31265C58.5905 5.31265 58.8269 5.22228 59.0075 5.04204L59.0947 4.95504C59.1342 4.91611 59.1684 4.87333 59.1992 4.82959C59.3206 5.22949 59.3865 5.65343 59.3865 6.09227V22.3138C59.1843 22.3354 58.9873 22.4229 58.8322 22.5782L58.7451 22.6651C58.3839 23.0256 58.3839 23.6096 58.7451 23.9701C58.9223 24.1475 59.1544 24.2369 59.3865 24.2398V32.2993C59.1843 32.321 58.9873 32.4089 58.8322 32.5637L58.7451 32.6507C58.3839 33.0112 58.3839 33.5957 58.7451 33.9561C58.9223 34.133 59.1544 34.2224 59.3865 34.2258V42.2839C59.1843 42.3056 58.9873 42.3935 58.8322 42.5483L58.7451 42.6353C58.3839 42.9958 58.3839 43.5802 58.7451 43.9407C58.9223 44.1176 59.1544 44.2075 59.3865 44.2104V52.27C59.1843 52.2916 58.9873 52.3795 58.8322 52.5343L58.7451 52.6213C58.3839 52.9818 58.3839 53.5663 58.7451 53.9263C58.9223 54.1036 59.1544 54.193 59.3865 54.1964V58.1243C59.3865 59.7273 58.079 61.0313 56.4715 61.0313H47.8567C47.3458 61.0313 46.9316 61.4442 46.9316 61.9541C46.9316 62.4641 47.3458 62.877 47.8567 62.877H56.4715C59.0985 62.877 61.2363 60.7448 61.2363 58.1243V6.09227C61.2359 2.66522 58.4402 -0.123047 55.004 -0.123047V-0.123047Z" fill="#AF7F3E"/>
<path d="M6.74155 11.1949C6.23106 11.1949 5.81689 11.6083 5.81689 12.1177V35.5202C5.81689 37.2261 7.20773 38.6142 8.91691 38.6142H9.0662C10.7754 38.6142 12.1662 37.2261 12.1662 35.5202V6.84884C12.1662 5.14301 10.7759 3.75488 9.0662 3.75488H8.91691C7.20773 3.75488 5.81689 5.14301 5.81689 6.84884V8.24177C5.81689 8.75174 6.23106 9.16462 6.74155 9.16462C7.25252 9.16462 7.66621 8.75174 7.66621 8.24177V6.84884C7.66621 6.16055 8.22726 5.60059 8.91691 5.60059H9.0662C9.75584 5.60059 10.3169 6.16055 10.3169 6.84884V35.5202C10.3169 36.2085 9.75584 36.7685 9.0662 36.7685H8.91691C8.22726 36.7685 7.66621 36.2085 7.66621 35.5202V12.1177C7.66621 11.6083 7.25252 11.1949 6.74155 11.1949Z" fill="#AF7F3E"/>
<path d="M30.5768 30.7862L30.4896 30.8732C30.1285 31.2337 30.1285 31.8182 30.4896 32.1787C30.6702 32.3585 30.9067 32.4488 31.1432 32.4488C31.3801 32.4488 31.6166 32.3585 31.7972 32.1787L31.8843 32.0917C32.2455 31.7312 32.2455 31.1467 31.8843 30.7862C31.5231 30.4262 30.938 30.4262 30.5768 30.7862Z" fill="#AF7F3E"/>
<path d="M32.8439 28.5248L32.7567 28.6118C32.3955 28.9723 32.3955 29.5567 32.7567 29.9172C32.9373 30.0975 33.1743 30.1873 33.4107 30.1873C33.6472 30.1873 33.8841 30.0975 34.0647 29.9172L34.1519 29.8302C34.5131 29.4697 34.5131 28.8853 34.1519 28.5248C33.7907 28.1648 33.2051 28.1648 32.8439 28.5248Z" fill="#AF7F3E"/>
<path d="M53.8186 9.83505C54.055 9.83505 54.292 9.74517 54.4726 9.56492L54.5597 9.47793C54.9209 9.11744 54.9209 8.53344 54.5597 8.17295C54.1986 7.81247 53.6129 7.81247 53.2517 8.17295L53.1646 8.25995C52.8039 8.62044 52.8039 9.20443 53.1646 9.56492C53.3452 9.74517 53.5821 9.83505 53.8186 9.83505Z" fill="#AF7F3E"/>
<path d="M35.1118 26.2634L35.0246 26.3504C34.6634 26.7104 34.6629 27.2948 35.0237 27.6553C35.2043 27.836 35.4412 27.9259 35.6781 27.9259C35.9146 27.9259 36.1511 27.836 36.3317 27.6563L36.4188 27.5693C36.78 27.2088 36.7805 26.6248 36.4198 26.2643C36.0586 25.9033 35.4735 25.9029 35.1118 26.2634Z" fill="#AF7F3E"/>
<path d="M41.9139 19.4794L41.8267 19.5664C41.466 19.9268 41.466 20.5113 41.8267 20.8718C42.0073 21.0521 42.2442 21.1419 42.4807 21.1419C42.7176 21.1419 42.9541 21.0521 43.1347 20.8718L43.2219 20.7848C43.5831 20.4243 43.5831 19.8398 43.2219 19.4794C42.8607 19.1193 42.275 19.1193 41.9139 19.4794Z" fill="#AF7F3E"/>
<path d="M44.1818 17.2184L44.0946 17.3054C43.7334 17.6659 43.7334 18.2498 44.0946 18.6103C44.2752 18.7906 44.5117 18.8805 44.7486 18.8805C44.9851 18.8805 45.2216 18.7906 45.4026 18.6103L45.4898 18.5233C45.8505 18.1628 45.8505 17.5784 45.4898 17.2184C45.1286 16.8579 44.543 16.8579 44.1818 17.2184Z" fill="#AF7F3E"/>
<path d="M28.8759 34.7103C29.1119 34.7103 29.3483 34.6204 29.5289 34.4406L29.6161 34.3541C29.9778 33.9941 29.9783 33.4096 29.618 33.0487C29.2573 32.6877 28.6717 32.6872 28.31 33.0472L28.2229 33.1337C27.8612 33.4938 27.8607 34.0782 28.2209 34.4387C28.4015 34.6199 28.6389 34.7103 28.8759 34.7103Z" fill="#AF7F3E"/>
<path d="M56.7391 7.30393L56.8262 7.21693C57.1879 6.85692 57.1879 6.27245 56.8272 5.91196C56.4665 5.55099 55.8809 5.55099 55.5197 5.911L55.4325 5.998C55.0708 6.35801 55.0708 6.94248 55.4315 7.30297C55.6121 7.48369 55.8491 7.57358 56.0856 7.57358C56.3225 7.57358 56.559 7.48369 56.7391 7.30393Z" fill="#AF7F3E"/>
<path d="M21.5065 39.8316L21.4193 39.9186C21.0581 40.2791 21.0581 40.8635 21.4193 41.224C21.5999 41.4043 21.8369 41.4942 22.0733 41.4942C22.3103 41.4942 22.5467 41.4043 22.7273 41.224L22.8145 41.137C23.1757 40.7766 23.1757 40.1921 22.8145 39.8316C22.4533 39.4711 21.8677 39.4716 21.5065 39.8316Z" fill="#AF7F3E"/>
<path d="M51.5509 12.0966C51.7873 12.0966 52.0238 12.0067 52.2049 11.8265L52.292 11.7395C52.6528 11.379 52.6528 10.7945 52.292 10.4345C51.9304 10.0735 51.3452 10.074 50.984 10.4345L50.8969 10.5215C50.5357 10.882 50.5357 11.466 50.8969 11.8265C51.0775 12.0067 51.3139 12.0966 51.5509 12.0966Z" fill="#AF7F3E"/>
<path d="M26.6083 36.9713C26.8448 36.9713 27.0812 36.8814 27.2614 36.7016L27.349 36.6146C27.7102 36.2546 27.7107 35.6702 27.3495 35.3097C26.9888 34.9487 26.4032 34.9487 26.042 35.3087L25.9548 35.3957C25.5936 35.7557 25.5931 36.3402 25.9538 36.7007C26.1344 36.8814 26.3714 36.9713 26.6083 36.9713Z" fill="#AF7F3E"/>
<path d="M24.3404 39.2328C24.5769 39.2328 24.8138 39.1429 24.9944 38.9626L25.0816 38.8756C25.4428 38.5151 25.4428 37.9307 25.0816 37.5702C24.7204 37.2102 24.1348 37.2102 23.7741 37.5702L23.6869 37.6572C23.3257 38.0181 23.3257 38.6021 23.6869 38.9626C23.867 39.1429 24.104 39.2328 24.3404 39.2328Z" fill="#AF7F3E"/>
<path d="M46.4497 14.9565L46.3625 15.0435C46.0013 15.4035 46.0008 15.988 46.3615 16.3484C46.5421 16.5292 46.7791 16.6191 47.016 16.6191C47.2525 16.6191 47.489 16.5292 47.6696 16.3494L47.7567 16.2624C48.1179 15.9024 48.1184 15.3179 47.7577 14.9574C47.3965 14.5969 46.8114 14.5965 46.4497 14.9565Z" fill="#AF7F3E"/>
<path d="M48.7174 12.6949L48.6303 12.7819C48.2686 13.1419 48.2686 13.7264 48.6293 14.0869C48.8099 14.2676 49.0468 14.3575 49.2838 14.3575C49.5202 14.3575 49.7567 14.2676 49.9368 14.0879L50.024 14.0009C50.3857 13.6409 50.3862 13.0564 50.025 12.6959C49.6642 12.3354 49.0786 12.3354 48.7174 12.6949Z" fill="#AF7F3E"/>
<path d="M20.5474 42.0941C20.1872 41.7331 19.6016 41.7322 19.2399 42.0922L19.1527 42.1792C18.791 42.5392 18.7901 43.1232 19.1508 43.4841C19.3314 43.6649 19.5683 43.7552 19.8058 43.7552C20.0417 43.7552 20.2782 43.6658 20.4583 43.4861L20.546 43.3991C20.9072 43.0395 20.9081 42.4551 20.5474 42.0941Z" fill="#AF7F3E"/>
<path d="M18.2796 44.3545C17.9184 43.994 17.3328 43.994 16.9721 44.3541L16.8844 44.4411C16.5232 44.8011 16.5227 45.3855 16.8839 45.746C17.0645 45.9263 17.301 46.0166 17.5379 46.0166C17.7744 46.0166 18.0109 45.9267 18.1915 45.747L18.2786 45.66C18.6398 45.3 18.6403 44.7155 18.2796 44.3545Z" fill="#AF7F3E"/>
<path d="M37.3797 24.0018L37.2926 24.0888C36.9309 24.4488 36.9304 25.0333 37.2916 25.3938C37.4722 25.5745 37.7091 25.6644 37.9456 25.6644C38.1821 25.6644 38.4185 25.5745 38.5991 25.3948L38.6863 25.3078C39.048 24.9477 39.0484 24.3633 38.6872 24.0028C38.3265 23.6418 37.7409 23.6418 37.3797 24.0018Z" fill="#AF7F3E"/>
<path d="M39.6469 21.7404L39.5598 21.8274C39.1986 22.1874 39.1981 22.7719 39.5588 23.1324C39.7399 23.3131 39.9763 23.4035 40.2133 23.4035C40.4497 23.4035 40.6862 23.3131 40.8668 23.1333L40.954 23.0463C41.3152 22.6863 41.3156 22.1019 40.9549 21.7414C40.5937 21.3809 40.0081 21.3804 39.6469 21.7404Z" fill="#AF7F3E"/>
<path d="M45.4021 28.5959L45.4893 28.5089C45.8505 28.1484 45.8505 27.5639 45.4893 27.2034C45.1281 26.8434 44.543 26.8429 44.1818 27.2034L44.0946 27.2904C43.7334 27.6509 43.7334 28.2354 44.0946 28.5959C44.2752 28.7756 44.5117 28.866 44.7486 28.866C44.9851 28.866 45.2216 28.7756 45.4021 28.5959Z" fill="#AF7F3E"/>
<path d="M24.9944 48.9482L25.0816 48.8612C25.4428 48.5007 25.4428 47.9163 25.0816 47.5558C24.7204 47.1958 24.1348 47.1958 23.7741 47.5558L23.6869 47.6428C23.3257 48.0033 23.3257 48.5877 23.6869 48.9482C23.8675 49.128 24.104 49.2183 24.3404 49.2183C24.5774 49.2183 24.8138 49.128 24.9944 48.9482Z" fill="#AF7F3E"/>
<path d="M29.5289 44.4257L29.6161 44.3392C29.9778 43.9792 29.9783 43.3947 29.618 43.0342C29.2573 42.6728 28.6717 42.6723 28.31 43.0323L28.2229 43.1188C27.8612 43.4788 27.8607 44.0633 28.2209 44.4243C28.4015 44.605 28.6389 44.6953 28.8759 44.6953C29.1124 44.6953 29.3483 44.6055 29.5289 44.4257Z" fill="#AF7F3E"/>
<path d="M43.1346 30.8569L43.2217 30.7699C43.5829 30.4094 43.5829 29.8254 43.2217 29.4649C42.8605 29.1045 42.2749 29.1045 41.9142 29.4649L41.827 29.5519C41.4659 29.9124 41.4659 30.4969 41.827 30.8569C42.0076 31.0372 42.2441 31.1275 42.4811 31.1275C42.7175 31.1275 42.954 31.0372 43.1346 30.8569Z" fill="#AF7F3E"/>
<path d="M36.3316 37.6413L36.4188 37.5543C36.78 37.1943 36.7804 36.6098 36.4197 36.2493C36.0585 35.8888 35.4734 35.8883 35.1122 36.2483L35.0246 36.3353C34.6634 36.6958 34.6629 37.2803 35.0241 37.6408C35.2047 37.821 35.4411 37.9114 35.6781 37.9114C35.9145 37.9114 36.151 37.8215 36.3316 37.6413Z" fill="#AF7F3E"/>
<path d="M27.2614 46.6872L27.349 46.6002C27.7102 46.2397 27.7107 45.6552 27.3495 45.2947C26.9888 44.9342 26.4032 44.9342 26.042 45.2942L25.9548 45.3812C25.5936 45.7412 25.5931 46.3257 25.9538 46.6862C26.1344 46.8665 26.3714 46.9568 26.6083 46.9568C26.8448 46.9568 27.0812 46.8669 27.2614 46.6872Z" fill="#AF7F3E"/>
<path d="M31.7972 42.1638L31.8843 42.0768C32.2455 41.7163 32.2455 41.1323 31.8843 40.7718C31.5231 40.4113 30.938 40.4113 30.5768 40.7718L30.4896 40.8588C30.1285 41.2193 30.1285 41.8038 30.4896 42.1638C30.6702 42.344 30.9067 42.4344 31.1436 42.4344C31.3801 42.4344 31.6166 42.344 31.7972 42.1638Z" fill="#AF7F3E"/>
<path d="M34.0643 39.9028L34.1514 39.8158C34.5126 39.4548 34.5126 38.8709 34.1514 38.5104C33.7902 38.1504 33.2051 38.1504 32.8439 38.5104L32.7567 38.5974C32.3955 38.9579 32.3955 39.5423 32.7567 39.9028C32.9373 40.0826 33.1743 40.1729 33.4107 40.1729C33.6472 40.1729 33.8841 40.0826 34.0643 39.9028Z" fill="#AF7F3E"/>
<path d="M38.5992 35.3803L38.6864 35.2933C39.0481 34.9329 39.0486 34.3489 38.6874 33.9879C38.3267 33.6274 37.741 33.6269 37.3799 33.9874L37.2927 34.0744C36.9315 34.4344 36.931 35.0189 37.2917 35.3794C37.4723 35.5596 37.7093 35.65 37.9462 35.65C38.1822 35.65 38.4186 35.5601 38.5992 35.3803Z" fill="#AF7F3E"/>
<path d="M59.0076 15.0276L59.0948 14.9406C59.456 14.5801 59.456 13.9961 59.0948 13.6356C58.7336 13.2751 58.148 13.2751 57.7868 13.6356L57.6996 13.7226C57.3384 14.0831 57.3384 14.6671 57.6996 15.0276C57.8802 15.2078 58.1171 15.2977 58.3536 15.2977C58.5901 15.2977 58.827 15.2078 59.0076 15.0276Z" fill="#AF7F3E"/>
<path d="M40.8668 33.1189L40.954 33.0319C41.3152 32.6719 41.3156 32.0874 40.9544 31.7269C40.5937 31.3659 40.0081 31.3659 39.6469 31.7259L39.5598 31.8129C39.1986 32.1729 39.1981 32.7574 39.5588 33.1179C39.7399 33.2986 39.9763 33.3885 40.2133 33.3885C40.4497 33.3885 40.6862 33.2986 40.8668 33.1189Z" fill="#AF7F3E"/>
<path d="M16.9721 54.3392L16.8844 54.4262C16.5232 54.7867 16.5227 55.3706 16.8839 55.7316C17.0645 55.9119 17.301 56.0022 17.5379 56.0022C17.7744 56.0022 18.0109 55.9123 18.1915 55.7321L18.2786 55.6451C18.6403 55.2851 18.6403 54.7006 18.2796 54.3401C17.9184 53.9796 17.3328 53.9792 16.9721 54.3392Z" fill="#AF7F3E"/>
<path d="M47.7567 26.2479C48.1179 25.8874 48.1184 25.3029 47.7577 24.9424C47.3965 24.5819 46.8114 24.5819 46.4502 24.9419L46.3625 25.0289C46.0013 25.389 46.0008 25.9734 46.3615 26.3339C46.5426 26.5142 46.7791 26.6045 47.016 26.6045C47.2525 26.6045 47.489 26.5146 47.6696 26.3349L47.7567 26.2479Z" fill="#AF7F3E"/>
<path d="M50.8969 21.8115C51.0775 21.9918 51.3144 22.0821 51.5509 22.0821C51.7874 22.0821 52.0243 21.9918 52.2049 21.8115L52.2921 21.7245C52.6533 21.364 52.6533 20.78 52.2921 20.4195C51.9304 20.059 51.3452 20.059 50.984 20.4195L50.8969 20.5065C50.5357 20.867 50.5357 21.4515 50.8969 21.8115Z" fill="#AF7F3E"/>
<path d="M53.1646 19.5505C53.3452 19.7303 53.5821 19.8206 53.8186 19.8206C54.055 19.8206 54.292 19.7303 54.4726 19.5505L54.5597 19.4635C54.9209 19.1025 54.9209 18.5186 54.5597 18.1581C54.1986 17.7981 53.6129 17.7981 53.2517 18.1581L53.1646 18.2451C52.8039 18.6056 52.8039 19.19 53.1646 19.5505Z" fill="#AF7F3E"/>
<path d="M48.717 22.681L48.6298 22.768C48.2686 23.1285 48.2686 23.7125 48.6298 24.073C48.8104 24.2532 49.0468 24.3431 49.2838 24.3431C49.5202 24.3431 49.7567 24.2532 49.9373 24.073L50.0245 23.986C50.3857 23.6255 50.3857 23.041 50.0245 22.681C49.6633 22.3205 49.0781 22.3205 48.717 22.681Z" fill="#AF7F3E"/>
<path d="M55.4315 17.2886C55.6121 17.4693 55.8491 17.5592 56.0855 17.5592C56.3225 17.5592 56.559 17.4693 56.7391 17.2896L56.8267 17.2026C57.1879 16.8421 57.1884 16.2581 56.8272 15.8976C56.4665 15.5366 55.8809 15.5362 55.5197 15.8967L55.4325 15.9836C55.0708 16.3437 55.0708 16.9281 55.4315 17.2886Z" fill="#AF7F3E"/>
<path d="M19.2399 52.0778L19.1527 52.1648C18.791 52.5243 18.7901 53.1088 19.1508 53.4697C19.3314 53.6505 19.5683 53.7408 19.8053 53.7408C20.0417 53.7408 20.2777 53.6509 20.4583 53.4717L20.5455 53.3847C20.9072 53.0246 20.9081 52.4402 20.5474 52.0797C20.1872 51.7187 19.6016 51.7177 19.2399 52.0778Z" fill="#AF7F3E"/>
<path d="M22.0735 51.4798C22.3104 51.4798 22.5469 51.3895 22.7275 51.2092L22.8146 51.1222C23.1758 50.7617 23.1758 50.1777 22.8146 49.8172C22.4534 49.4568 21.8678 49.4568 21.5066 49.8172L21.4195 49.9042C21.0587 50.2647 21.0587 50.8492 21.4195 51.2092C21.6001 51.3895 21.837 51.4798 22.0735 51.4798Z" fill="#AF7F3E"/>
<path d="M39.7327 42.9308C39.3715 42.5703 38.7863 42.5699 38.4251 42.9299L38.338 43.0169C37.9763 43.3774 37.9758 43.9618 38.337 44.3223C38.5176 44.5026 38.7545 44.5929 38.991 44.5929C39.2275 44.5929 39.4639 44.503 39.6445 44.3228L39.7317 44.2358C40.0929 43.8758 40.0934 43.2918 39.7327 42.9308Z" fill="#AF7F3E"/>
<path d="M23.1188 60.4228C23.3552 60.4228 23.5922 60.3325 23.7728 60.1527L23.8599 60.0657C24.2211 59.7047 24.2211 59.1207 23.8599 58.7602C23.4987 58.4002 22.9131 58.4002 22.5524 58.7602L22.4652 58.8472C22.104 59.2077 22.104 59.7922 22.4652 60.1527C22.6453 60.3325 22.8823 60.4228 23.1188 60.4228Z" fill="#AF7F3E"/>
<path d="M35.1976 47.4538C34.8369 47.0929 34.2513 47.0929 33.8901 47.4529L33.8029 47.5399C33.4417 47.8999 33.4413 48.4843 33.802 48.8448C33.9826 49.0256 34.2195 49.1159 34.4565 49.1159C34.6929 49.1159 34.9294 49.0256 35.11 48.8458L35.1971 48.7588C35.5583 48.3988 35.5588 47.8143 35.1976 47.4538Z" fill="#AF7F3E"/>
<path d="M32.1886 51.3774C32.425 51.3774 32.6615 51.287 32.8421 51.1073L32.9293 51.0203C33.2909 50.6603 33.2914 50.0758 32.9302 49.7153C32.5695 49.3543 31.9839 49.3543 31.6227 49.7143L31.5355 49.8013C31.1739 50.1618 31.1739 50.7458 31.5346 51.1063C31.7152 51.287 31.9521 51.3774 32.1886 51.3774Z" fill="#AF7F3E"/>
<path d="M37.4657 45.1923C37.1045 44.8318 36.5189 44.8313 36.1577 45.1913L36.0705 45.2783C35.7093 45.6388 35.7088 46.2228 36.0696 46.5833C36.2501 46.764 36.4871 46.8544 36.724 46.8544C36.9605 46.8544 37.197 46.7645 37.3776 46.5843L37.4647 46.4973C37.8259 46.1373 37.8264 45.5528 37.4657 45.1923Z" fill="#AF7F3E"/>
<path d="M42.0004 40.6694C41.6397 40.3089 41.054 40.3089 40.6928 40.6689L40.6057 40.7559C40.2445 41.1159 40.244 41.7004 40.6047 42.0608C40.7853 42.2411 41.0222 42.3314 41.2592 42.3314C41.4957 42.3314 41.7321 42.2416 41.9127 42.0618L41.9999 41.9748C42.3611 41.6148 42.3611 41.0303 42.0004 40.6694Z" fill="#AF7F3E"/>
<path d="M47.4948 33.885L47.4076 33.972C47.0464 34.3325 47.0464 34.9165 47.4076 35.277C47.5882 35.4572 47.8247 35.5471 48.0611 35.5471C48.2981 35.5471 48.5345 35.4572 48.7151 35.277L48.8023 35.19C49.1635 34.8295 49.1635 34.2455 48.8023 33.885C48.4411 33.5245 47.856 33.5245 47.4948 33.885Z" fill="#AF7F3E"/>
<path d="M54.297 27.1006L54.2099 27.1876C53.8487 27.5485 53.8487 28.1325 54.2099 28.493C54.3905 28.6733 54.6269 28.7631 54.8634 28.7631C55.1003 28.7631 55.3368 28.6733 55.5174 28.493L55.6046 28.406C55.9657 28.0455 55.9657 27.4611 55.6046 27.1006C55.2434 26.7406 54.6582 26.7406 54.297 27.1006Z" fill="#AF7F3E"/>
<path d="M29.9215 53.6384C30.1579 53.6384 30.3949 53.5485 30.5755 53.3683L30.6627 53.2813C31.0239 52.9208 31.0239 52.3368 30.6627 51.9763C30.3015 51.6158 29.7158 51.6158 29.3551 51.9763L29.268 52.0633C28.9068 52.4238 28.9068 53.0078 29.268 53.3683C29.4481 53.5485 29.685 53.6384 29.9215 53.6384Z" fill="#AF7F3E"/>
<path d="M45.2275 36.146L45.1403 36.233C44.7791 36.593 44.7787 37.1775 45.1394 37.538C45.3205 37.7182 45.5569 37.8086 45.7939 37.8086C46.0303 37.8086 46.2668 37.7187 46.4474 37.5389L46.5345 37.4519C46.8957 37.0919 46.8962 36.5074 46.5355 36.1469C46.1743 35.786 45.5887 35.786 45.2275 36.146Z" fill="#AF7F3E"/>
<path d="M56.5646 24.8396L56.4774 24.9266C56.1162 25.2871 56.1162 25.8711 56.4774 26.2315C56.658 26.4118 56.8945 26.5017 57.1314 26.5017C57.3679 26.5017 57.6044 26.4118 57.785 26.2315L57.8721 26.1446C58.2333 25.7841 58.2333 25.1996 57.8721 24.8396C57.5109 24.4791 56.9258 24.4791 56.5646 24.8396Z" fill="#AF7F3E"/>
<path d="M25.3868 58.1613C25.6233 58.1613 25.8597 58.071 26.0403 57.8912L26.1275 57.8042C26.4887 57.4437 26.4887 56.8593 26.1275 56.4988C25.7663 56.1388 25.1812 56.1388 24.82 56.4988L24.7328 56.5858C24.3716 56.9463 24.3716 57.5307 24.7328 57.8912C24.9134 58.071 25.1499 58.1613 25.3868 58.1613Z" fill="#AF7F3E"/>
<path d="M52.0295 29.362L51.9423 29.449C51.5811 29.8095 51.5811 30.394 51.9423 30.7545C52.1229 30.9343 52.3598 31.0246 52.5963 31.0246C52.8327 31.0246 53.0697 30.9343 53.2503 30.7545L53.3375 30.6675C53.6986 30.307 53.6986 29.7225 53.3375 29.362C52.9763 29.002 52.3906 29.002 52.0295 29.362Z" fill="#AF7F3E"/>
<path d="M44.2684 38.409C43.9077 38.0475 43.3221 38.047 42.9604 38.407L42.8732 38.494C42.5116 38.8536 42.5111 39.438 42.8713 39.799C43.0519 39.9797 43.2893 40.0701 43.5263 40.0701C43.7623 40.0701 43.9987 39.9802 44.1793 39.8009L44.2665 39.7139C44.6282 39.3539 44.6287 38.7694 44.2684 38.409Z" fill="#AF7F3E"/>
<path d="M49.7619 31.6235L49.6747 31.7105C49.3135 32.071 49.3135 32.6555 49.6747 33.016C49.8553 33.1957 50.0922 33.2861 50.3287 33.2861C50.5652 33.2861 50.8021 33.1957 50.9827 33.016L51.0699 32.929C51.4311 32.568 51.4311 31.984 51.0699 31.6235C50.7082 31.2635 50.1231 31.2635 49.7619 31.6235Z" fill="#AF7F3E"/>
<path d="M27.6539 55.8999C27.8904 55.8999 28.1273 55.81 28.3079 55.6297L28.3951 55.5427C28.7558 55.1823 28.7558 54.5983 28.3951 54.2378C28.0339 53.8773 27.4483 53.8773 27.0871 54.2378L26.9999 54.3248C26.6387 54.6853 26.6387 55.2693 26.9999 55.6297C27.1805 55.81 27.417 55.8999 27.6539 55.8999Z" fill="#AF7F3E"/>
<path d="M36.1576 55.177L36.07 55.264C35.7088 55.6245 35.7083 56.2085 36.0695 56.569C36.2501 56.7497 36.4865 56.84 36.7235 56.84C36.9599 56.84 37.1964 56.7497 37.377 56.5699L37.4642 56.4829C37.8259 56.1229 37.8263 55.5384 37.4651 55.178C37.1039 54.817 36.5188 54.817 36.1576 55.177Z" fill="#AF7F3E"/>
<path d="M33.8893 57.4385L33.8021 57.5255C33.441 57.886 33.441 58.4704 33.8021 58.8309C33.9827 59.0112 34.2197 59.101 34.4562 59.101C34.6926 59.101 34.9296 59.0112 35.1102 58.8309L35.1973 58.7439C35.5585 58.3834 35.5585 57.799 35.1973 57.4385C34.8356 57.0785 34.2505 57.0785 33.8893 57.4385Z" fill="#AF7F3E"/>
<path d="M45.2277 46.1311L45.1405 46.2181C44.7788 46.5781 44.7779 47.1621 45.1386 47.5231C45.3192 47.7038 45.5561 47.7942 45.7936 47.7942C46.0295 47.7942 46.266 47.7048 46.4461 47.525L46.5338 47.438C46.895 47.078 46.8959 46.494 46.5352 46.133C46.175 45.7721 45.5894 45.7711 45.2277 46.1311Z" fill="#AF7F3E"/>
<path d="M57.8726 34.8257C57.5119 34.4647 56.9263 34.4647 56.5651 34.8247L56.4779 34.9117C56.1162 35.2722 56.1162 35.8562 56.477 36.2167C56.6576 36.3974 56.8945 36.4878 57.1314 36.4878C57.3679 36.4878 57.6044 36.3979 57.7845 36.2176L57.8721 36.1306C58.2333 35.7706 58.2338 35.1861 57.8726 34.8257Z" fill="#AF7F3E"/>
<path d="M53.3375 39.3476C52.9763 38.9876 52.3906 38.9876 52.0295 39.3476L51.9423 39.4346C51.5811 39.7956 51.5811 40.3796 51.9423 40.7401C52.1229 40.9203 52.3598 41.0102 52.5963 41.0102C52.8327 41.0102 53.0697 40.9203 53.2503 40.7401L53.3375 40.6531C53.6982 40.2926 53.6982 39.7086 53.3375 39.3476Z" fill="#AF7F3E"/>
<path d="M48.8026 43.871C48.4414 43.5105 47.8558 43.51 47.4946 43.87L47.4074 43.957C47.0462 44.3175 47.0458 44.9015 47.4065 45.2625C47.5871 45.4427 47.824 45.5331 48.0609 45.5331C48.2974 45.5331 48.5339 45.4432 48.7145 45.263L48.8016 45.176C49.1628 44.816 49.1633 44.2315 48.8026 43.871Z" fill="#AF7F3E"/>
<path d="M51.0694 41.6091C50.7082 41.2491 50.1231 41.2491 49.7619 41.6091L49.6747 41.6961C49.3135 42.0566 49.3135 42.6411 49.6747 43.0016C49.8553 43.1818 50.0918 43.2717 50.3287 43.2717C50.5652 43.2717 50.8016 43.1818 50.9822 43.0016L51.0694 42.9146C51.4306 42.5541 51.4306 41.9696 51.0694 41.6091Z" fill="#AF7F3E"/>
<path d="M38.425 52.9155L38.3378 53.0025C37.9761 53.3629 37.9761 53.9474 38.3368 54.3079C38.5174 54.4882 38.7544 54.5785 38.9913 54.5785C39.2278 54.5785 39.4642 54.4886 39.6443 54.3084L39.732 54.2214C40.0932 53.8614 40.0937 53.2769 39.7325 52.9164C39.3718 52.5559 38.7861 52.5554 38.425 52.9155Z" fill="#AF7F3E"/>
<path d="M55.6056 37.0876C55.2449 36.7266 54.6592 36.7257 54.2981 37.0857L54.2104 37.1727C53.8492 37.5327 53.8482 38.1167 54.209 38.4777C54.3896 38.6584 54.6265 38.7488 54.8634 38.7488C55.0999 38.7488 55.3359 38.6594 55.5165 38.4796L55.6036 38.3926C55.9653 38.0326 55.9663 37.4486 55.6056 37.0876Z" fill="#AF7F3E"/>
<path d="M40.6916 50.6545L40.6044 50.7415C40.2432 51.102 40.2432 51.6865 40.6044 52.047C40.785 52.2272 41.0219 52.3171 41.2584 52.3171C41.4949 52.3171 41.7318 52.2272 41.9124 52.047L41.9996 51.96C42.3608 51.5995 42.3608 51.015 41.9996 50.6545C41.6384 50.2945 41.0528 50.2945 40.6916 50.6545Z" fill="#AF7F3E"/>
<path d="M44.2671 48.3935C43.906 48.033 43.3203 48.033 42.9596 48.3935L42.8725 48.4805C42.5113 48.841 42.5113 49.425 42.8725 49.7855C43.0531 49.9657 43.2895 50.0556 43.526 50.0556C43.7629 50.0556 43.9994 49.9657 44.18 49.7855L44.2671 49.6985C44.6283 49.338 44.6283 48.7535 44.2671 48.3935Z" fill="#AF7F3E"/>
<path d="M47.4946 53.8547L47.4074 53.9417C47.0462 54.3022 47.0458 54.8861 47.4065 55.2466C47.5871 55.4274 47.824 55.5177 48.0609 55.5177C48.2974 55.5177 48.5339 55.4274 48.7145 55.2476L48.8016 55.1606C49.1628 54.8006 49.1633 54.2161 48.8026 53.8556C48.4414 53.4951 47.8558 53.4947 47.4946 53.8547Z" fill="#AF7F3E"/>
<path d="M53.3375 49.3327C52.9763 48.9723 52.3906 48.9723 52.0295 49.3327L51.9423 49.4197C51.5811 49.7802 51.5811 50.3642 51.9423 50.7247C52.1229 50.905 52.3598 50.9948 52.5963 50.9948C52.8327 50.9948 53.0697 50.905 53.2503 50.7247L53.3375 50.6377C53.6982 50.2772 53.6982 49.6928 53.3375 49.3327Z" fill="#AF7F3E"/>
<path d="M55.6056 47.0722C55.2449 46.7113 54.6592 46.7103 54.2981 47.0703L54.2104 47.1573C53.8492 47.5173 53.8482 48.1013 54.209 48.4623C54.3896 48.643 54.6265 48.7334 54.8634 48.7334C55.0999 48.7334 55.3359 48.6435 55.5165 48.4642L55.6036 48.3772C55.9653 48.0172 55.9663 47.4332 55.6056 47.0722Z" fill="#AF7F3E"/>
<path d="M57.8726 44.8102C57.5119 44.4497 56.9263 44.4492 56.5651 44.8093L56.4779 44.8963C56.1162 45.2567 56.1162 45.8412 56.477 46.2017C56.6576 46.382 56.8945 46.4723 57.1314 46.4723C57.3679 46.4723 57.6044 46.3824 57.7845 46.2022L57.8721 46.1152C58.2333 45.7552 58.2338 45.1707 57.8726 44.8102Z" fill="#AF7F3E"/>
<path d="M49.7619 51.5937L49.6747 51.6807C49.3135 52.0412 49.3135 52.6257 49.6747 52.9862C49.8553 53.166 50.0918 53.2563 50.3287 53.2563C50.5652 53.2563 50.8016 53.166 50.9822 52.9862L51.0694 52.8992C51.4306 52.5387 51.4306 51.9542 51.0694 51.5937C50.7082 51.2337 50.1231 51.2337 49.7619 51.5937Z" fill="#AF7F3E"/>
<path d="M45.2277 56.1156L45.1405 56.2026C44.7788 56.5626 44.7779 57.1466 45.1386 57.5075C45.3192 57.6883 45.5561 57.7786 45.7936 57.7786C46.0295 57.7786 46.266 57.6892 46.4461 57.5095L46.5338 57.4225C46.895 57.0625 46.8959 56.478 46.5352 56.1175C46.175 55.7566 45.5894 55.7556 45.2277 56.1156Z" fill="#AF7F3E"/>
<path d="M42.9596 58.3776L42.8725 58.4645C42.5113 58.8255 42.5113 59.4095 42.8725 59.77C43.0531 59.9502 43.2895 60.0401 43.526 60.0401C43.7629 60.0401 43.9994 59.9502 44.18 59.77L44.2671 59.683C44.6283 59.3225 44.6283 58.738 44.2671 58.3776C43.906 58.0175 43.3208 58.0175 42.9596 58.3776Z" fill="#AF7F3E"/>
<path d="M54.2981 57.0563L54.2104 57.1433C53.8492 57.5028 53.8482 58.0873 54.209 58.4482C54.3896 58.6289 54.6265 58.7193 54.8634 58.7193C55.0999 58.7193 55.3359 58.6294 55.5165 58.4501L55.6036 58.3631C55.9653 58.0031 55.9663 57.4187 55.6056 57.0582C55.2449 56.6972 54.6592 56.6963 54.2981 57.0563Z" fill="#AF7F3E"/>
<path d="M52.0295 59.3182L51.9423 59.4052C51.5811 59.7657 51.5811 60.3502 51.9423 60.7107C52.1229 60.8909 52.3598 60.9808 52.5963 60.9808C52.8327 60.9808 53.0697 60.8909 53.2503 60.7107L53.3375 60.6237C53.6982 60.2632 53.6982 59.6787 53.3375 59.3182C52.9763 58.9582 52.3906 58.9582 52.0295 59.3182Z" fill="#AF7F3E"/>
<path d="M56.5648 54.7953L56.4776 54.8823C56.1159 55.2423 56.1155 55.8268 56.4767 56.1873C56.6572 56.368 56.8942 56.4584 57.1307 56.4584C57.3671 56.4584 57.6036 56.368 57.7842 56.1883L57.8713 56.1013C58.233 55.7413 58.2335 55.1568 57.8723 54.7963C57.5116 54.4358 56.926 54.4353 56.5648 54.7953Z" fill="#AF7F3E"/>
<path d="M18.6679 2.40758L18.5802 2.49458C18.219 2.85459 18.2185 3.43906 18.5797 3.79955C18.7603 3.98028 18.9968 4.07064 19.2337 4.07064C19.4702 4.07064 19.7067 3.98028 19.8873 3.80051L19.9744 3.71351C20.3361 3.35351 20.3361 2.76903 19.9754 2.40854C19.6147 2.04757 19.0291 2.04757 18.6679 2.40758Z" fill="#AF7F3E"/>
<path d="M17.3432 13.7145L17.2561 13.8015C16.8949 14.1615 16.8944 14.7459 17.2551 15.1064C17.4357 15.2872 17.6726 15.377 17.9096 15.377C18.146 15.377 18.3825 15.2872 18.5631 15.1074L18.6503 15.0204C19.0115 14.6604 19.012 14.0759 18.6512 13.7154C18.29 13.3545 17.7044 13.3545 17.3432 13.7145Z" fill="#AF7F3E"/>
<path d="M21.8776 9.192L21.7904 9.279C21.4292 9.63949 21.4292 10.224 21.7904 10.5845C21.971 10.7642 22.208 10.8546 22.4444 10.8546C22.6809 10.8546 22.9178 10.7642 23.0984 10.5845L23.1856 10.4975C23.5468 10.137 23.5468 9.55249 23.1856 9.192C22.8239 8.83199 22.2388 8.83199 21.8776 9.192Z" fill="#AF7F3E"/>
<path d="M19.5231 11.54C19.1619 11.9005 19.1614 12.4845 19.5226 12.845C19.7032 13.0257 19.9397 13.116 20.1766 13.116C20.4131 13.116 20.6495 13.0257 20.8301 12.8459L20.9173 12.7589C21.279 12.3989 21.279 11.8144 20.9183 11.454C20.5576 11.093 19.9719 11.093 19.6107 11.453L19.5231 11.54Z" fill="#AF7F3E"/>
<path d="M24.1452 6.93053L24.058 7.01753C23.6968 7.37802 23.6968 7.96249 24.058 8.32298C24.2386 8.50322 24.4755 8.5931 24.712 8.5931C24.9485 8.5931 25.1854 8.50322 25.366 8.32298L25.4532 8.23598C25.8144 7.87549 25.8144 7.29102 25.4532 6.93053C25.092 6.57052 24.5064 6.57052 24.1452 6.93053Z" fill="#AF7F3E"/>
<path d="M26.4137 4.66851L26.3265 4.75551C25.9649 5.11552 25.9639 5.69951 26.3246 6.06048C26.5052 6.2412 26.7422 6.33157 26.9791 6.33157C27.2156 6.33157 27.4515 6.24168 27.6321 6.0624L27.7193 5.9754C28.081 5.6154 28.082 5.03092 27.7212 4.67043C27.3605 4.30898 26.7754 4.3085 26.4137 4.66851Z" fill="#AF7F3E"/>
<path d="M28.6808 2.40758L28.5936 2.49458C28.232 2.85459 28.232 3.43906 28.5927 3.79955C28.7733 3.98028 29.0102 4.07064 29.2472 4.07064C29.4836 4.07064 29.7201 3.98028 29.9002 3.80051L29.9879 3.71351C30.349 3.35351 30.3495 2.76903 29.9883 2.40854C29.6276 2.04757 29.042 2.04757 28.6808 2.40758Z" fill="#AF7F3E"/>
<path d="M38.6925 2.40758L38.6054 2.49458C38.2437 2.85459 38.2437 3.43906 38.6044 3.79955C38.785 3.98028 39.0219 4.07064 39.2589 4.07064C39.4953 4.07064 39.7318 3.98028 39.9119 3.80051L39.9996 3.71351C40.3608 3.35351 40.3613 2.76903 40.0001 2.40854C39.6393 2.04757 39.0537 2.04757 38.6925 2.40758Z" fill="#AF7F3E"/>
<path d="M36.4259 4.66851L36.3388 4.75551C35.9771 5.11552 35.9761 5.69951 36.3368 6.06048C36.5174 6.2412 36.7544 6.33157 36.9913 6.33157C37.2278 6.33157 37.4637 6.24168 37.6443 6.0624L37.7315 5.9754C38.0932 5.6154 38.0941 5.03092 37.7334 4.67043C37.3732 4.30898 36.7876 4.3085 36.4259 4.66851Z" fill="#AF7F3E"/>
<path d="M19.5047 24.1528L19.5919 24.0658C19.9535 23.7058 19.954 23.1213 19.5928 22.7608C19.2321 22.3999 18.6465 22.3999 18.2853 22.7599L18.1981 22.8469C17.8365 23.2069 17.8365 23.7914 18.1972 24.1518C18.3778 24.3326 18.6147 24.4229 18.8517 24.4229C19.0876 24.4229 19.3241 24.3326 19.5047 24.1528Z" fill="#AF7F3E"/>
<path d="M34.1569 6.93053L34.0697 7.01753C33.7085 7.37802 33.7085 7.96249 34.0697 8.32298C34.2503 8.50322 34.4873 8.5931 34.7237 8.5931C34.9602 8.5931 35.1971 8.50322 35.3777 8.32298L35.4649 8.23598C35.8261 7.87549 35.8261 7.29102 35.4649 6.93053C35.1037 6.57052 34.5181 6.57052 34.1569 6.93053Z" fill="#AF7F3E"/>
<path d="M21.7716 21.8913L21.8592 21.8043C22.2204 21.4443 22.2209 20.8599 21.8597 20.4994C21.499 20.1384 20.9134 20.1384 20.5522 20.4984L20.465 20.5854C20.1039 20.9459 20.1034 21.5299 20.4641 21.8904C20.6447 22.0711 20.8816 22.1615 21.1186 22.1615C21.355 22.1615 21.5915 22.0716 21.7716 21.8913Z" fill="#AF7F3E"/>
<path d="M27.3554 13.714L27.2683 13.801C26.9066 14.161 26.9061 14.745 27.2663 15.106C27.4469 15.2867 27.6839 15.377 27.9213 15.377C28.1573 15.377 28.3937 15.2876 28.5743 15.1079L28.6615 15.0209C29.0232 14.6609 29.0237 14.0764 28.6634 13.7159C28.3027 13.3549 27.7171 13.354 27.3554 13.714Z" fill="#AF7F3E"/>
<path d="M25.0871 15.9759L24.9999 16.0629C24.6387 16.4234 24.6387 17.0079 24.9999 17.3684C25.1805 17.5486 25.417 17.6385 25.6539 17.6385C25.8904 17.6385 26.1268 17.5486 26.3074 17.3684L26.3946 17.2814C26.7558 16.9209 26.7558 16.3364 26.3946 15.9759C26.0334 15.6159 25.4483 15.6159 25.0871 15.9759Z" fill="#AF7F3E"/>
<path d="M31.8898 9.192L31.8026 9.279C31.4414 9.63949 31.4414 10.224 31.8026 10.5845C31.9832 10.7642 32.2202 10.8546 32.4566 10.8546C32.6931 10.8546 32.93 10.7642 33.1106 10.5845L33.1978 10.4975C33.559 10.137 33.559 9.55249 33.1978 9.192C32.8366 8.83199 32.251 8.83199 31.8898 9.192Z" fill="#AF7F3E"/>
<path d="M29.6229 11.453L29.5353 11.54C29.1741 11.9005 29.1736 12.4845 29.5348 12.845C29.7154 13.0257 29.9519 13.116 30.1888 13.116C30.4253 13.116 30.6617 13.0257 30.8423 12.8459L30.9295 12.7589C31.2912 12.3989 31.2912 11.8144 30.9305 11.454C30.5693 11.093 29.9841 11.093 29.6229 11.453Z" fill="#AF7F3E"/>
<path d="M22.8191 18.2374L22.732 18.3244C22.3712 18.6849 22.3712 19.2694 22.732 19.6294C22.9126 19.8096 23.1495 19.9 23.386 19.9C23.6224 19.9 23.8594 19.8096 24.04 19.6294L24.1271 19.5424C24.4883 19.1819 24.4883 18.5979 24.1271 18.2374C23.7659 17.8774 23.1803 17.8774 22.8191 18.2374Z" fill="#AF7F3E"/>
<path d="M48.7038 2.40806L48.6166 2.49506C48.2554 2.85555 48.2554 3.44002 48.6166 3.80003C48.7972 3.98028 49.0341 4.07064 49.2706 4.07064C49.5071 4.07064 49.744 3.98028 49.9246 3.80003L50.0118 3.71303C50.373 3.35254 50.373 2.76855 50.0118 2.40806C49.6501 2.04757 49.065 2.04757 48.7038 2.40806Z" fill="#AF7F3E"/>
<path d="M19.7934 33.4688C20.0298 33.4688 20.2663 33.3789 20.4469 33.1986L20.5341 33.1116C20.8953 32.7516 20.8957 32.1672 20.535 31.8067C20.1738 31.4462 19.5882 31.4457 19.227 31.8057L19.1398 31.8927C18.7787 32.2532 18.7782 32.8377 19.1389 33.1982C19.3195 33.3784 19.5564 33.4688 19.7934 33.4688Z" fill="#AF7F3E"/>
<path d="M46.4367 4.66954L46.3495 4.75653C45.9883 5.11702 45.9883 5.70102 46.3495 6.06151C46.5301 6.24175 46.7666 6.33163 47.003 6.33163C47.24 6.33163 47.4764 6.24175 47.657 6.06151L47.7442 5.97451C48.1054 5.61402 48.1054 5.03003 47.7442 4.66954C47.383 4.30905 46.7979 4.30905 46.4367 4.66954Z" fill="#AF7F3E"/>
<path d="M16.872 34.1546C16.5108 34.5151 16.5108 35.0991 16.872 35.4596C17.0526 35.6398 17.2895 35.7297 17.526 35.7297C17.7624 35.7297 17.9994 35.6398 18.18 35.4596L18.2671 35.3726C18.6283 35.0121 18.6283 34.4281 18.2671 34.0676C17.9059 33.7071 17.3203 33.7071 16.9591 34.0676L16.872 34.1546Z" fill="#AF7F3E"/>
<path d="M27.2496 26.4148L27.3368 26.3278C27.698 25.9678 27.6985 25.3833 27.3373 25.0228C26.9766 24.6618 26.3909 24.6618 26.0298 25.0218L25.9426 25.1088C25.5814 25.4688 25.5809 26.0533 25.9416 26.4138C26.1222 26.5941 26.3592 26.6844 26.5961 26.6844C26.8326 26.6844 27.069 26.5945 27.2496 26.4148Z" fill="#AF7F3E"/>
<path d="M29.5174 24.1528L29.6046 24.0658C29.9657 23.7053 29.9657 23.1213 29.6046 22.7608C29.2434 22.4004 28.6577 22.4004 28.297 22.7608L28.2099 22.8478C27.8487 23.2083 27.8487 23.7923 28.2099 24.1528C28.3905 24.3331 28.6269 24.4229 28.8634 24.4229C29.1003 24.4229 29.3368 24.3331 29.5174 24.1528Z" fill="#AF7F3E"/>
<path d="M22.0608 31.2073C22.2973 31.2073 22.5338 31.1174 22.7144 30.9377L22.8015 30.8507C23.1632 30.4902 23.1632 29.9062 22.8025 29.5452C22.4418 29.1847 21.8562 29.1847 21.495 29.5447L21.4078 29.6317C21.0461 29.9917 21.0456 30.5762 21.4068 30.9367C21.5874 31.1169 21.8239 31.2073 22.0608 31.2073Z" fill="#AF7F3E"/>
<path d="M39.6344 11.4535L39.5473 11.5405C39.1856 11.9005 39.1856 12.485 39.5463 12.8454C39.7269 13.0257 39.9638 13.1161 40.2003 13.1161C40.4368 13.1161 40.6732 13.0262 40.8538 12.8464L40.9415 12.7594C41.3027 12.3989 41.3031 11.8149 40.9419 11.4544C40.5812 11.0935 39.9956 11.0935 39.6344 11.4535Z" fill="#AF7F3E"/>
<path d="M41.9023 9.19146L41.8151 9.27846C41.4535 9.63799 41.453 10.2225 41.8132 10.5834C41.9938 10.7642 42.2312 10.8545 42.4682 10.8545C42.7041 10.8545 42.9406 10.7646 43.1212 10.5854L43.2084 10.4984C43.57 10.1383 43.5705 9.55387 43.2103 9.19338C42.8496 8.83193 42.264 8.83145 41.9023 9.19146Z" fill="#AF7F3E"/>
<path d="M44.1686 6.93101L44.0814 7.01801C43.7202 7.3785 43.7202 7.96249 44.0814 8.32298C44.262 8.50322 44.499 8.59311 44.7354 8.59311C44.9719 8.59311 45.2089 8.50322 45.3894 8.32298L45.4766 8.23598C45.8378 7.87549 45.8378 7.29102 45.4766 6.93101C45.1154 6.57052 44.5298 6.57052 44.1686 6.93101Z" fill="#AF7F3E"/>
<path d="M24.9816 28.6762L25.0692 28.5892C25.4304 28.2287 25.4309 27.6442 25.0697 27.2837C24.709 26.9232 24.1234 26.9232 23.7622 27.2833L23.675 27.3702C23.3138 27.7303 23.3133 28.3147 23.674 28.6752C23.8546 28.8555 24.0916 28.9458 24.3285 28.9458C24.565 28.9458 24.8014 28.8559 24.9816 28.6762Z" fill="#AF7F3E"/>
<path d="M37.3671 13.7149L37.2794 13.8019C36.9182 14.1619 36.9178 14.7464 37.279 15.1069C37.4596 15.2871 37.6965 15.3775 37.933 15.3775C38.1694 15.3775 38.4059 15.2876 38.5865 15.1078L38.6737 15.0208C39.0353 14.6603 39.0358 14.0759 38.6746 13.7154C38.3134 13.3549 37.7283 13.3549 37.3671 13.7149Z" fill="#AF7F3E"/>
<path d="M35.0988 15.9764L35.0116 16.0634C34.6504 16.4239 34.6504 17.0084 35.0116 17.3684C35.1922 17.5486 35.4292 17.639 35.6656 17.639C35.9021 17.639 36.139 17.5486 36.3196 17.3684L36.4068 17.2814C36.768 16.9209 36.768 16.3369 36.4068 15.9764C36.0456 15.6164 35.46 15.6164 35.0988 15.9764Z" fill="#AF7F3E"/>
<path d="M30.5641 20.4994L30.477 20.5864C30.1158 20.9469 30.1158 21.5309 30.477 21.8913C30.6575 22.0716 30.894 22.1615 31.131 22.1615C31.3674 22.1615 31.6039 22.0716 31.7845 21.8913L31.8716 21.8043C32.2328 21.4439 32.2328 20.8594 31.8716 20.4994C31.5104 20.1389 30.9253 20.1389 30.5641 20.4994Z" fill="#AF7F3E"/>
<path d="M32.8317 18.2379L32.7445 18.3249C32.3833 18.6854 32.3833 19.2694 32.7445 19.6299C32.9251 19.8101 33.1616 19.9 33.3985 19.9C33.635 19.9 33.8719 19.8101 34.0525 19.6299L34.1397 19.5429C34.5004 19.1824 34.5004 18.5984 34.1397 18.2379C33.778 17.8774 33.1929 17.8774 32.8317 18.2379Z" fill="#AF7F3E"/>
</g>
<defs>
<clipPath id="clip0">
<rect width="63" height="63" fill="white"/>
</clipPath>
</defs>
</svg>
